<svg xmlns="http://www.w3.org/2000/svg" width="8" height="8" viewBox="0 0 8 8" fill="none">
<path fill-rule="evenodd" clip-rule="evenodd" d="M7.21024 0.773599C6.91476 0.477485 6.47155 0.477485 6.17607 0.773599L4.00926 2.9451L1.84244 0.773599C1.54696 0.477485 1.10375 0.477485 0.808276 0.773599C0.512801 1.06971 0.512801 1.51388 0.808276 1.81L2.97509 3.9815L0.808276 6.15299C0.512801 6.44911 0.512801 6.89328 0.808276 7.18939C0.956014 7.33745 1.153 7.3868 1.34998 7.3868C1.54696 7.3868 1.74395 7.33745 1.89168 7.18939L4.0585 5.01789L6.22532 7.18939C6.37306 7.33745 6.57004 7.3868 6.76702 7.3868C6.96401 7.3868 7.16099 7.33745 7.30873 7.18939C7.6042 6.89328 7.6042 6.44911 7.30873 6.15299L5.14191 3.9815L7.30873 1.81C7.50571 1.51388 7.50571 1.06971 7.21024 0.773599Z" fill="#8B83BA"/>
</svg>